# xmcd
#
# Track frame offsets:
#	182
#	16767
#	34000
#	45617
#	63927
#	79700
#	98630
#	116222
#	127762
#	145292
#	164345
#	186802
#	212387
#	228262
#	241755
#	253345
#	275577
#	294420
#
# Disc length: 4330 seconds
#
# Revision: 0
# Processed by: cddbd v1.5PL3 Copyright (c) Steve Scherf et al.
# Submitted via: dBpowerAMP V4.0
#
DISCID=f010e812
DTITLE=ZZ Top - Hot Legs On The Road
DYEAR=1900
DGENRE=Blues
TTITLE0=Can't Stop Rockin
TTITLE1=Velcro Fly
TTITLE2=Tube Snake Boogie
TTITLE3=La Grange'
TTITLE4=Tush
TTITLE5=Got Me Under Pressure
TTITLE6=Sleeping Bag
TTITLE7=Waiting For The Bus
TTITLE8=Jezus Left Chicago
TTITLE9=Gimme All Your Lovin
TTITLE10=Legs
TTITLE11=Sharp Dressed Man
TTITLE12=Ten Foot Pole
TTITLE13=Manic Mechanic
TTITLE14=Heard It On The X
TTITLE15=Rough Boy
TTITLE16=Cheap Sunglasses
TTITLE17=Thunderbird
EXTD=ZZ Top - Hot legs on the road\n\nSubmitted By \n\nHans van Dijk\nThe Netherlands
EXTT0=
EXTT1=
EXTT2=
EXTT3=
EXTT4=
EXTT5=
EXTT6=
EXTT7=
EXTT8=
EXTT9=
EXTT10=
EXTT11=
EXTT12=
EXTT13=
EXTT14=
EXTT15=
EXTT16=
EXTT17=
PLAYORDER=
